<svg xmlns="http://www.w3.org/2000/svg" version="1.1" xmlns:xlink="http://www.w3.org/1999/xlink" xmlns:svgjs="http://svgjs.dev/svgjs" opacity="0.2" width="3840" height="2160" preserveAspectRatio="none" viewBox="0 0 3840 2160"><g mask="url(&quot;#SvgjsMask1077&quot;)" fill="none"><path d="M354.86 0C465.76 33.69 445.93 164.05 540 164.05C638.19 164.05 622.96 35.37 739.38 0C892.96 -46.66 909.69 0 1080 0C1270.86 0 1282.19 -36.34 1461.72 0C1552.19 18.31 1535.67 109.29 1620 109.29C1738.86 109.29 1738.09 26.31 1868.11 0C2008.09 -28.33 2014.06 0 2160 0C2430 0 2430 0 2700 0C2888.29 0 2988.11 -110.59 3076.58 0C3204.11 159.41 3065.27 296.46 3132 540C3146.98 594.67 3183.68 596.42 3240 596.42C3323.59 596.42 3387.49 614.77 3411.82 540C3484.52 316.56 3321.82 164.63 3434.06 0C3505.91 -105.37 3607.03 0 3780 0C3945.23 0 4048.95 -102.5 4110.45 0C4210.95 167.5 4030.9 320.23 4104 540C4135.67 635.23 4283.05 537.63 4320 630C4391.05 807.63 4320 855 4320 1080C4320 1275.65 4377.95 1303.56 4320 1471.3C4284.67 1573.56 4133.45 1549.22 4133.45 1620C4133.45 1686.9 4287.08 1651.37 4320 1746.67C4380.35 1921.37 4437.06 2070.4 4320 2160C4167.06 2277.06 4050 2160 3780 2160C3510 2160 3510 2160 3240 2160C2970 2160 2970 2160 2700 2160C2581.47 2160 2528.63 2238.16 2462.93 2160C2301.67 1968.16 2372.8 1876.93 2246.09 1620C2221.34 1569.8 2201.79 1545.75 2160 1545.75C2121.15 1545.75 2118 1578.96 2084.81 1620C1869.6 1886.08 1881.82 1906.02 1663.2 2160C1649.41 2176.02 1641.6 2160 1620 2160C1350 2160 1350 2160 1080 2160C810 2160 810 2160 540 2160C270 2160 135 2295 0 2160C-135 2025 0 1890 0 1620C0 1350 0 1350 0 1080C0 810 0 810 0 540C0 270 -107.07 162.93 0 0C70.36 -107.07 195.76 -48.33 354.86 0" stroke="rgba(149, 75, 45, 1)" stroke-width="2"></path><path d="M540 941.35C336.63 941.35 93.91 996.18 93.91 1080C93.91 1168.11 349.14 1285.2 540 1285.2C632.54 1285.2 660.71 1177.01 660.71 1080C660.71 1005.09 620.03 941.35 540 941.35" stroke="rgba(149, 75, 45, 1)" stroke-width="2"></path><path d="M2700 1012.5C2684.35 1012.5 2670.41 1048.42 2670.41 1080C2670.41 1099.59 2684.64 1114.84 2700 1114.84C2716.31 1114.84 2733.75 1100.02 2733.75 1080C2733.75 1048.85 2716.02 1012.5 2700 1012.5" stroke="rgba(86, 121, 100, 1)" stroke-width="2"></path><path d="M1080 1531.14C1006.71 1531.14 920.45 1573.2 920.45 1620C920.45 1668.5 1007.85 1721.74 1080 1721.74C1130.96 1721.74 1166.67 1669.41 1166.67 1620C1166.67 1574.11 1129.82 1531.14 1080 1531.14" stroke="rgba(86, 121, 100, 1)" stroke-width="2"></path><path d="M162 0C366.43 126.8 347.94 334.94 540 334.94C740.48 334.94 731.45 133.75 947.08 0C1001.45 -33.72 1013.54 0 1080 0C1154.49 0 1164.53 -32.22 1228.97 0C1434.53 102.78 1416.25 148.63 1620 270C1869.49 418.63 1880.34 401.35 2135.45 540C2150.34 548.09 2143.74 563.48 2160 563.48C2264.01 563.48 2364.51 619.12 2376 540C2405.42 337.38 2152.98 148.07 2241.82 0C2314.98 -121.93 2470.91 0 2700 0C2799.48 0 2892.89 -70.67 2898.95 0C2916.04 199.33 2834.93 276.85 2746.29 540C2735.45 572.17 2714.84 559.91 2700 590.63C2584.43 829.91 2485.48 851.03 2485.48 1080C2485.48 1222.01 2588.61 1332.58 2700 1332.58C2818.21 1332.58 2819.77 1203.69 2944.69 1080C3089.77 936.36 3085.76 797.91 3240 797.91C3411.72 797.91 3449.88 912.29 3596.6 1080C3719.88 1220.92 3689.28 1247.06 3780 1415.17C3834.98 1517.06 3805.05 1543.48 3888 1620C4075.05 1792.56 4173.3 1729.95 4320 1913.33C4389.3 1999.95 4404.66 2121.33 4320 2160C4134.66 2244.66 4050 2160 3780 2160C3639.6 2160 3629.37 2197.19 3499.2 2160C3359.37 2120.05 3382.66 2022.58 3240 2005.71C2983.06 1975.33 2904.91 2164.51 2700 2065.5C2505.78 1971.66 2598.49 1819.85 2441.74 1620C2328.49 1475.6 2296.77 1377 2160 1377C2032.86 1377 2030.02 1492.11 1913.92 1620C1760.02 1789.52 1778.93 1808.01 1620 1971.82C1516.97 2078.01 1522.15 2113.95 1390 2160C1252.15 2208.04 1235 2160 1080 2160C859.74 2160 639.47 2216.64 639.47 2160C639.47 2095.34 884.74 2069.35 1080 1917.39C1231.67 1799.35 1333.33 1764.43 1333.33 1620C1333.33 1485.86 1205.04 1491.67 1080 1360.25C948.14 1221.67 947.33 1222.32 819.53 1080C677.33 921.65 719.54 811.78 540 758.92C309.78 691.14 174.5 909.47 0 838.72C-95.5 800.01 0 689.36 0 540C0 270 -62.31 207.69 0 0C18.69 -62.31 96.43 -40.67 162 0" stroke="rgba(149, 75, 45, 1)" stroke-width="2"></path><path d="M3780 332.31C3713.8 332.31 3645 120.72 3645 0C3645 -45.44 3712.5 0 3780 0C3844.48 0 3908.96 -44.14 3908.96 0C3908.96 122.01 3845.78 332.31 3780 332.31" stroke="rgba(207, 193, 69, 1)" stroke-width="2"></path><path d="M4006.05 1080C4006.05 972.57 4220.81 855 4320 855C4377.78 855 4320 967.5 4320 1080C4320 1177.82 4374.3 1275.65 4320 1275.65C4217.33 1275.65 4006.05 1182.89 4006.05 1080" stroke="rgba(149, 75, 45, 1)" stroke-width="2"></path><path d="M0 1311.43C177.54 1290.13 276.76 1422.83 540 1555.2C583.58 1577.12 613.64 1576.97 613.64 1620C613.64 1733.99 575.29 1744.18 540 1869.23C499.09 2014.18 567.92 2102.56 461.25 2160C297.92 2247.95 106.24 2284.38 0 2160C-124.38 2014.38 0 1890 0 1620C0 1465.72 -92.46 1322.53 0 1311.43" stroke="rgba(86, 121, 100, 1)" stroke-width="2"></path><path d="M0 432C225.35 417.74 271.3 462.41 540 505.82C605.59 516.41 668.57 522.37 668.57 540C668.57 557.71 606.26 575.35 540 576.49C271.98 581.1 264.38 569.36 0 551.49C-5.62 551.11 0 545.74 0 540C0 486 -44.65 434.83 0 432" stroke="rgba(207, 193, 69, 1)" stroke-width="2"></path><path d="M1341.82 540C1461.38 456.03 1483.87 430.71 1620 430.71C1727.28 430.71 1828.64 455.66 1828.64 540C1828.64 686.85 1741.57 730.19 1620 893.08C1540.05 1000.19 1540.78 1016.8 1425.6 1080C1270.78 1164.95 1238.39 1189.37 1080 1189.37C1014.76 1189.37 978.35 1144.69 978.35 1080C978.35 955.01 1001.11 927.21 1080 810C1182.84 657.21 1191.38 645.67 1341.82 540" stroke="rgba(86, 121, 100, 1)" stroke-width="2"></path><path d="M2700 64.8C2680.86 64.8 2650.91 20.2 2650.91 0C2650.91 -12.2 2675.45 0 2700 0C2710.66 0 2721.32 -7.71 2721.32 0C2721.32 24.69 2716.06 64.8 2700 64.8" stroke="rgba(86, 121, 100, 1)" stroke-width="2"></path><path d="M1793.57 1080C1793.57 987.8 2003 856.96 2160 856.96C2256.49 856.96 2300.55 977.98 2300.55 1080C2300.55 1153.63 2243.37 1208.25 2160 1208.25C1989.88 1208.25 1793.57 1163.44 1793.57 1080" stroke="rgba(149, 75, 45, 1)" stroke-width="2"></path><path d="M3155.63 1080C3196.46 1038.34 3195.93 999.4 3240 999.4C3289.06 999.4 3328.14 1019.96 3341.89 1080C3399.2 1330.26 3421.66 1385.42 3382.11 1620C3370.72 1687.57 3316.24 1672.22 3240 1684.29C2975.19 1726.22 2944.88 1754.13 2700 1728C2643.57 1721.98 2637.39 1670.75 2637.39 1620C2637.39 1581.91 2667.57 1584.11 2700 1550.32C2926.69 1314.11 2926.46 1313.8 3155.63 1080" stroke="rgba(149, 75, 45, 1)" stroke-width="2"></path><path d="M0 1586.94C26.12 1586.94 62.13 1583.35 73.64 1620C152.13 1869.88 207.75 1956.54 180 2160C170.93 2226.54 22.5 2227.5 0 2160C-67.5 1957.5 0 1890 0 1620C0 1603.47 -10.7 1586.94 0 1586.94" stroke="rgba(86, 121, 100, 1)" stroke-width="2"></path><path d="M1500 1620C1500 1450.98 1559.32 1260 1620 1260C1680.84 1260 1743.04 1451.41 1743.04 1620C1743.04 1705.04 1681.07 1767.27 1620 1767.27C1559.55 1767.27 1500 1704.61 1500 1620" stroke="rgba(149, 75, 45, 1)" stroke-width="2"></path><path d="M994.74 2160C994.74 2147.48 1039.26 2113.04 1080 2113.04C1111.89 2113.04 1140 2146.86 1140 2160C1140 2170.34 1110 2160 1080 2160C1037.37 2160 994.74 2170.96 994.74 2160" stroke="rgba(149, 75, 45, 1)" stroke-width="2"></path><path d="M4050 2160C4050 2139.58 4214.87 2080 4320 2080C4349.87 2080 4350.86 2150.86 4320 2160C4215.86 2190.86 4050 2179.58 4050 2160" stroke="rgba(149, 75, 45, 1)" stroke-width="2"></path></g><defs><mask id="SvgjsMask1077"><rect width="3840" height="2160" fill="#ffffff"></rect></mask></defs></svg>